<?xml version="1.0" encoding="iso-8859-1"?>
<!-- Generator: Adobe Illustrator 19.0.0, SVG Export Plug-In . SVG Version: 6.00 Build 0)  -->
<svg version="1.1" id="Capa_1" xmlns="http://www.w3.org/2000/svg" xmlns:xlink="http://www.w3.org/1999/xlink" x="0px" y="0px"
	 viewBox="0 0 496.009 496.009" style="enable-background:new 0 0 496.009 496.009;" xml:space="preserve">
<g>
	<g>
		<path d="M455.981,180.005c4.418,0,8-3.582,8-8v-24h24v-16h-480v16h24v24c0,4.418,3.582,8,8,8h8v256h-8c-4.418,0-8,3.582-8,8v32
			h-24v16h480v-16h-24v-32c0-4.418-3.582-8-8-8h-8v-256H455.981z M207.981,148.005h80v16h-80V148.005z M271.981,180.005v256h-48
			v-256H271.981z M47.981,148.005h80v16h-80V148.005z M111.981,180.005v256h-48v-256H111.981z M127.981,468.005h-80v-16h80V468.005z
			 M191.981,444.005v32h-48v-32c0-4.418-3.582-8-8-8h-8v-256h8c4.418,0,8-3.582,8-8v-24h48v24c0,4.418,3.582,8,8,8h8v256h-8
			C195.563,436.005,191.981,439.587,191.981,444.005z M287.981,468.005h-80v-16h80V468.005z M351.981,444.005v32h-48v-32
			c0-4.418-3.582-8-8-8h-8v-256h8c4.418,0,8-3.582,8-8v-24h48v24c0,4.418,3.582,8,8,8h8v256h-8
			C355.563,436.005,351.981,439.587,351.981,444.005z M447.981,468.005h-80v-16h80V468.005z M383.981,436.005v-256h48v256H383.981z
			 M367.981,164.005v-16h80v16H367.981z"/>
	</g>
</g>
<g>
	<g>
		<path d="M491.181,108.661l-240-104c-2.027-0.877-4.325-0.877-6.352,0l-240,104c-4.056,1.752-5.924,6.461-4.171,10.517
			c1.263,2.923,4.139,4.819,7.323,4.827h480c4.418,0.015,8.012-3.554,8.027-7.972C496.02,112.831,494.121,109.931,491.181,108.661z
			 M46.557,108.005l201.424-87.28l201.424,87.28H46.557z"/>
	</g>
</g>
<g>
</g>
<g>
</g>
<g>
</g>
<g>
</g>
<g>
</g>
<g>
</g>
<g>
</g>
<g>
</g>
<g>
</g>
<g>
</g>
<g>
</g>
<g>
</g>
<g>
</g>
<g>
</g>
<g>
</g>
</svg>
